<svg width="100" height="100" viewBox="0 0 100 100" fill="none" xmlns="http://www.w3.org/2000/svg">
<g clip-path="url(#clip0)">
<path d="M49.9977 2.67856C24.9353 2.67856 4.54546 25.1074 4.54546 52.6761C4.55 80.2497 24.9399 102.679 49.9977 102.679C75.0601 102.679 95.45 80.2497 95.4545 52.6761C95.4545 25.1074 75.0647 2.67856 49.9977 2.67856ZM49.9977 92.6791C29.9533 92.6791 13.6405 74.735 13.6359 52.6761C13.6359 30.6222 29.9487 12.6781 49.9977 12.6781C70.0513 12.6781 86.3641 30.6222 86.3641 52.6761C86.3595 74.735 70.0467 92.6791 49.9977 92.6791Z" fill="white"/>
<circle cx="50" cy="50" r="48.5" fill="#D4CDCD" stroke="#3D3D3D" stroke-width="3"/>
<path d="M22.9155 27.6226C22.8013 27.7791 22.6659 27.9484 22.5093 28.1304C22.3527 28.3081 22.1813 28.4753 21.9951 28.6318C21.8089 28.7842 21.61 28.9111 21.3984 29.0127C21.1911 29.1185 20.9774 29.1714 20.7573 29.1714C20.6092 29.1714 20.4717 29.1481 20.3447 29.1016C20.2178 29.0592 20.0993 29 19.9893 28.9238C19.8835 28.8477 19.7819 28.7609 19.6846 28.6636C19.5915 28.562 19.5026 28.4583 19.418 28.3525C19.1387 28.0055 18.8657 27.6564 18.5991 27.3052C18.3368 26.9539 18.0807 26.5964 17.8311 26.2324L17.9009 25.9722C18.1759 25.9256 18.4531 25.8558 18.7324 25.7627C19.016 25.6654 19.2868 25.5469 19.5449 25.4072C19.8031 25.2633 20.0443 25.0983 20.2686 24.9121C20.4928 24.7217 20.6875 24.5122 20.8525 24.2837C21.0176 24.0509 21.1466 23.7992 21.2397 23.5283C21.3371 23.2533 21.3857 22.9591 21.3857 22.646C21.3857 22.3455 21.3371 22.0684 21.2397 21.8145C21.1424 21.5605 21.0049 21.3405 20.8271 21.1543C20.6536 20.9681 20.4442 20.8242 20.1987 20.7227C19.9533 20.6169 19.6803 20.564 19.3799 20.564C18.999 20.564 18.6414 20.6063 18.3071 20.6909C17.9771 20.7756 17.6618 20.8898 17.3613 21.0337C17.0651 21.1733 16.7795 21.3341 16.5044 21.5161C16.2293 21.6981 15.9585 21.8864 15.6919 22.0811L15.4951 21.8652C15.749 21.6198 16.022 21.3743 16.314 21.1289C16.6102 20.8792 16.9424 20.6549 17.3105 20.4561C17.6787 20.2572 18.0892 20.0964 18.542 19.9736C18.999 19.8467 19.5132 19.7832 20.0845 19.7832C20.4696 19.7832 20.8229 19.8509 21.1445 19.9863C21.4704 20.1217 21.7497 20.3101 21.9824 20.5513C22.2152 20.7925 22.3971 21.0781 22.5283 21.4082C22.6595 21.7383 22.7251 22.098 22.7251 22.4873C22.7251 23.0924 22.5728 23.6193 22.2681 24.0679C21.9634 24.5122 21.5508 24.874 21.0303 25.1533C20.9668 25.1872 20.8864 25.2316 20.7891 25.2866C20.696 25.3416 20.5923 25.4009 20.478 25.4644C20.368 25.5278 20.2537 25.5913 20.1353 25.6548C20.0168 25.7183 19.9025 25.7775 19.7925 25.8325C19.6825 25.8833 19.5809 25.9277 19.4878 25.9658C19.3947 26.0039 19.3164 26.0272 19.2529 26.0356C19.3418 26.1541 19.4497 26.2959 19.5767 26.4609C19.7078 26.626 19.8433 26.7952 19.9829 26.9688C20.1226 27.1423 20.2601 27.3073 20.3955 27.4639C20.5352 27.6204 20.66 27.7474 20.77 27.8447C20.8758 27.9336 20.9816 28.0119 21.0874 28.0796C21.1974 28.1473 21.3265 28.1812 21.4746 28.1812C21.5889 28.1812 21.7031 28.1579 21.8174 28.1113C21.9316 28.0605 22.0417 27.9971 22.1475 27.9209C22.2533 27.8447 22.3527 27.7622 22.4458 27.6733C22.5389 27.5845 22.6214 27.502 22.6934 27.4258L22.9155 27.6226ZM17.5454 28.7144L16.2378 29.1968V22.0811L17.5454 21.6177V28.7144ZM30.3788 28.7271L29.0649 29.1968V25.5913H25.7641V28.7271L24.4501 29.1968V25.5913H23.4345L23.9042 24.6709H24.4501V20.1069L25.7641 19.6372V24.6709H29.0649V20.1069L30.3788 19.6372V28.7271ZM39.4418 28.1304C39.3783 28.2531 39.2979 28.3716 39.2006 28.4858C39.1075 28.6001 38.9996 28.7017 38.8768 28.7905C38.7583 28.8752 38.6314 28.945 38.496 29C38.3606 29.0508 38.2209 29.0762 38.077 29.0762C37.8443 29.0762 37.639 29.0317 37.4613 28.9429C37.2836 28.854 37.1355 28.7355 37.017 28.5874C36.8985 28.4351 36.8096 28.2616 36.7504 28.0669C36.6911 27.8722 36.6615 27.667 36.6615 27.4512V26.7021C36.5769 27.0153 36.4647 27.3179 36.3251 27.6099C36.1854 27.8976 36.0119 28.1558 35.8046 28.3843C35.5972 28.6086 35.3539 28.7884 35.0746 28.9238C34.7995 29.0592 34.4843 29.127 34.1288 29.127C33.858 29.127 33.6252 29.0783 33.4305 28.981C33.2359 28.8794 33.0751 28.744 32.9481 28.5747C32.8212 28.4054 32.7281 28.2108 32.6688 27.9907C32.6096 27.7664 32.58 27.5316 32.58 27.2861V20.2783L33.8939 19.8086V26.8164C33.8939 26.9688 33.896 27.138 33.9003 27.3242C33.9045 27.5104 33.9299 27.6839 33.9764 27.8447C34.023 28.0055 34.1034 28.141 34.2177 28.251C34.3319 28.361 34.497 28.416 34.7128 28.416C34.954 28.416 35.1677 28.3441 35.3539 28.2002C35.5443 28.0521 35.7115 27.8617 35.8554 27.6289C36.0035 27.3919 36.1283 27.1253 36.2299 26.8291C36.3314 26.5329 36.4139 26.2388 36.4774 25.9468C36.5409 25.6506 36.5874 25.3691 36.6171 25.1025C36.6467 24.8317 36.6615 24.6053 36.6615 24.4233V20.2783L37.9755 19.8086V27.6606C37.9755 27.7453 37.9839 27.8299 38.0009 27.9146C38.0178 27.9992 38.0474 28.0754 38.0897 28.1431C38.132 28.2065 38.1871 28.2594 38.2548 28.3018C38.3225 28.3441 38.4071 28.3652 38.5087 28.3652C38.6526 28.3652 38.788 28.3229 38.9149 28.2383C39.0461 28.1536 39.154 28.0563 39.2387 27.9463L39.4418 28.1304ZM50.8978 28.1304C50.8343 28.2531 50.7539 28.3716 50.6566 28.4858C50.5635 28.6001 50.4556 28.7017 50.3328 28.7905C50.2143 28.8752 50.0874 28.945 49.952 29C49.8166 29.0508 49.6769 29.0762 49.533 29.0762C49.3003 29.0762 49.095 29.0317 48.9173 28.9429C48.7396 28.854 48.5915 28.7355 48.473 28.5874C48.3545 28.4351 48.2656 28.2616 48.2064 28.0669C48.1471 27.8722 48.1175 27.667 48.1175 27.4512V21.1353C48.1175 21.0718 48.109 21.0083 48.0921 20.9448C48.0794 20.8771 48.0561 20.8179 48.0223 20.7671C47.9884 20.7121 47.944 20.6698 47.889 20.6401C47.8382 20.6063 47.7747 20.5894 47.6986 20.5894C47.5716 20.5894 47.4341 20.6423 47.286 20.748C47.1421 20.8496 46.9961 20.9977 46.848 21.1924C46.7041 21.3828 46.5644 21.6134 46.429 21.8843C46.2936 22.1551 46.173 22.4556 46.0672 22.7856C45.9656 23.1157 45.8831 23.4733 45.8196 23.8584C45.7562 24.2393 45.7244 24.6392 45.7244 25.0581V28.7271L44.4105 29.1968V21.1353C44.4105 21.0718 44.402 21.0083 44.3851 20.9448C44.3724 20.8771 44.3491 20.8179 44.3153 20.7671C44.2814 20.7121 44.2391 20.6698 44.1883 20.6401C44.1375 20.6063 44.074 20.5894 43.9979 20.5894C43.8709 20.5894 43.7334 20.6676 43.5853 20.8242C43.4414 20.9766 43.2954 21.1818 43.1473 21.4399C43.0034 21.6938 42.8616 21.988 42.722 22.3223C42.5866 22.6566 42.466 23.0036 42.3602 23.3633C42.2586 23.7188 42.1761 24.0742 42.1126 24.4297C42.0491 24.7852 42.0174 25.1131 42.0174 25.4136V28.7271L40.7034 29.1968V20.1069L42.0174 19.6372V23.2173C42.1824 22.5063 42.3686 21.9224 42.576 21.4653C42.7876 21.0083 43.0055 20.6465 43.2298 20.3799C43.4583 20.1133 43.6911 19.9292 43.928 19.8276C44.165 19.7218 44.3957 19.6689 44.6199 19.6689C44.8738 19.6689 45.0749 19.7007 45.223 19.7642C45.3711 19.8234 45.4832 19.908 45.5594 20.0181C45.6356 20.1239 45.6821 20.2508 45.699 20.3989C45.7202 20.5428 45.7287 20.7015 45.7244 20.875V22.7603C45.8514 22.2355 46.0164 21.7806 46.2196 21.3955C46.4227 21.0062 46.6427 20.6846 46.8797 20.4307C47.1167 20.1725 47.36 19.9821 47.6097 19.8594C47.8636 19.7324 48.1027 19.6689 48.327 19.6689C48.6824 19.6689 48.9554 19.7451 49.1458 19.8975C49.3363 20.0456 49.4315 20.2974 49.4315 20.6528V27.6606C49.4315 27.7453 49.4399 27.8299 49.4569 27.9146C49.4738 27.9992 49.5013 28.0754 49.5394 28.1431C49.5817 28.2065 49.6367 28.2594 49.7044 28.3018C49.7721 28.3441 49.8546 28.3652 49.952 28.3652C50.0959 28.3652 50.2334 28.3229 50.3646 28.2383C50.4958 28.1536 50.6037 28.0563 50.6883 27.9463L50.8978 28.1304ZM59.6878 28.1304C59.6243 28.2531 59.5439 28.3716 59.4465 28.4858C59.3534 28.6001 59.2455 28.7017 59.1228 28.7905C59.0043 28.8752 58.8774 28.945 58.742 29C58.6065 29.0508 58.4669 29.0762 58.323 29.0762C58.086 29.0762 57.8787 29.0317 57.7009 28.9429C57.5274 28.854 57.3793 28.7355 57.2566 28.5874C57.1381 28.4351 57.0492 28.2616 56.99 28.0669C56.9308 27.8722 56.9011 27.667 56.9011 27.4512V24.9946C56.8419 25.2655 56.7742 25.5575 56.698 25.8706C56.6218 26.1795 56.5287 26.4884 56.4187 26.7974C56.3087 27.1021 56.1796 27.3962 56.0315 27.6797C55.8834 27.9632 55.7078 28.215 55.5047 28.4351C55.3058 28.6509 55.0772 28.8244 54.8191 28.9556C54.561 29.0825 54.2669 29.146 53.9368 29.146C53.5348 29.146 53.1751 29.0698 52.8577 28.9175C52.5403 28.7651 52.2695 28.5557 52.0452 28.2891C51.8251 28.0225 51.6559 27.7072 51.5374 27.3433C51.4231 26.9751 51.366 26.5773 51.366 26.1499C51.366 25.6421 51.4464 25.1343 51.6072 24.6265C51.768 24.1144 51.988 23.6235 52.2673 23.1538C52.5509 22.6841 52.8852 22.2482 53.2703 21.8462C53.6596 21.4442 54.0828 21.0951 54.5398 20.7988C54.9968 20.5026 55.4771 20.272 55.9807 20.1069C56.4885 19.9419 57.0006 19.8636 57.5169 19.8721H57.593V20.1577C57.1487 20.1789 56.7213 20.2762 56.3108 20.4497C55.9003 20.619 55.5152 20.8433 55.1555 21.1226C54.8001 21.3976 54.4742 21.7171 54.178 22.0811C53.8818 22.445 53.6279 22.8322 53.4163 23.2427C53.2089 23.6532 53.046 24.0763 52.9275 24.5122C52.8132 24.9481 52.7561 25.3776 52.7561 25.8008C52.7561 25.9658 52.7667 26.1436 52.7879 26.334C52.809 26.5202 52.845 26.7085 52.8958 26.8989C52.9465 27.0851 53.0121 27.265 53.0925 27.4385C53.1729 27.6077 53.2724 27.7601 53.3909 27.8955C53.5136 28.0267 53.6554 28.1325 53.8162 28.2129C53.977 28.2891 54.1611 28.3271 54.3684 28.3271C54.6181 28.3271 54.8445 28.251 55.0476 28.0986C55.2507 27.9463 55.4348 27.741 55.5999 27.4829C55.7649 27.2248 55.9109 26.9243 56.0379 26.5815C56.169 26.2388 56.2833 25.877 56.3806 25.4961C56.478 25.1152 56.5584 24.728 56.6218 24.3345C56.6895 23.9367 56.7424 23.5558 56.7805 23.1919C56.8228 22.828 56.8525 22.4915 56.8694 22.1826C56.8906 21.8695 56.9011 21.6071 56.9011 21.3955L58.2151 20.9131V27.6606C58.2151 27.7453 58.2236 27.8299 58.2405 27.9146C58.2574 27.9992 58.287 28.0775 58.3294 28.1494C58.3717 28.2171 58.4246 28.2721 58.488 28.3145C58.5558 28.3568 58.6383 28.3779 58.7356 28.3779C58.8837 28.3779 59.0234 28.3335 59.1546 28.2446C59.2857 28.1558 59.3936 28.0563 59.4783 27.9463L59.6878 28.1304ZM69.0412 21.1733L67.9747 22.4619C67.8816 22.1826 67.761 21.916 67.6129 21.6621C67.4648 21.4082 67.2892 21.186 67.0861 20.9956C66.8829 20.8052 66.6523 20.6528 66.3942 20.5386C66.136 20.4243 65.8483 20.3672 65.5309 20.3672C65.3024 20.3672 65.0908 20.4095 64.8961 20.4941C64.7015 20.5745 64.5301 20.6888 64.382 20.8369C64.2381 20.9808 64.1238 21.1522 64.0392 21.3511C63.9588 21.55 63.9186 21.7637 63.9186 21.9922C63.9186 22.2292 63.963 22.4513 64.0519 22.6587C64.1408 22.866 64.2593 23.0544 64.4074 23.2236C64.5555 23.3887 64.7247 23.5326 64.9152 23.6553C65.1098 23.778 65.3108 23.8732 65.5182 23.9409C65.7256 24.0129 65.9435 24.0933 66.172 24.1821C66.4005 24.271 66.6248 24.3747 66.8449 24.4932C67.0649 24.6117 67.2744 24.745 67.4733 24.8931C67.6722 25.0369 67.8478 25.1999 68.0001 25.3818C68.1525 25.5638 68.2731 25.7669 68.362 25.9912C68.4508 26.2113 68.4953 26.4525 68.4953 26.7148C68.4953 27.0957 68.4106 27.4385 68.2413 27.7432C68.0763 28.0436 67.8584 28.2975 67.5875 28.5049C67.3167 28.7122 67.0057 28.8709 66.6544 28.981C66.3074 29.091 65.9541 29.146 65.5944 29.146C65.3489 29.146 65.0993 29.11 64.8454 29.0381C64.5957 28.9661 64.3545 28.8688 64.1217 28.7461C63.8932 28.6191 63.6774 28.4731 63.4743 28.3081C63.2754 28.1431 63.1019 27.9653 62.9538 27.7749L63.9821 26.5942C64.0455 26.7974 64.1556 27.0132 64.3121 27.2417C64.473 27.4702 64.6592 27.6818 64.8707 27.8765C65.0823 28.0711 65.3087 28.234 65.5499 28.3652C65.7954 28.4922 66.0324 28.5557 66.2609 28.5557C66.3921 28.5557 66.5275 28.5218 66.6671 28.4541C66.8068 28.3864 66.9337 28.2996 67.048 28.1938C67.1665 28.0838 67.2638 27.9653 67.34 27.8384C67.4162 27.7114 67.4542 27.5866 67.4542 27.4639C67.4542 27.2777 67.4162 27.1021 67.34 26.937C67.2638 26.7677 67.1622 26.609 67.0353 26.4609C66.9126 26.3128 66.7687 26.1774 66.6037 26.0547C66.4428 25.9277 66.2736 25.8156 66.0958 25.7183C65.9223 25.6167 65.7467 25.5299 65.569 25.458C65.3955 25.3818 65.2347 25.3226 65.0866 25.2803C64.7946 25.1914 64.5089 25.0645 64.2296 24.8994C63.9546 24.7344 63.7091 24.5355 63.4933 24.3027C63.2775 24.07 63.104 23.8097 62.9728 23.522C62.8416 23.23 62.776 22.9189 62.776 22.5889C62.776 22.3053 62.8204 22.0366 62.9093 21.7827C62.9982 21.5288 63.1209 21.2939 63.2775 21.0781C63.4341 20.8623 63.6181 20.6676 63.8297 20.4941C64.0413 20.3164 64.2698 20.1683 64.5153 20.0498C64.7607 19.9271 65.0167 19.834 65.2833 19.7705C65.5499 19.7028 65.8187 19.6689 66.0895 19.6689C66.6819 19.6689 67.2321 19.8022 67.7399 20.0688C68.2477 20.3312 68.6815 20.6994 69.0412 21.1733ZM77.1646 28.1304C77.1012 28.2531 77.0207 28.3716 76.9234 28.4858C76.8303 28.6001 76.7224 28.7017 76.5997 28.7905C76.4812 28.8752 76.3542 28.945 76.2188 29C76.0834 29.0508 75.9438 29.0762 75.7999 29.0762C75.5671 29.0762 75.3619 29.0317 75.1842 28.9429C75.0064 28.854 74.8583 28.7355 74.7398 28.5874C74.6213 28.4351 74.5325 28.2616 74.4732 28.0669C74.414 27.8722 74.3844 27.667 74.3844 27.4512V26.7021C74.2997 27.0153 74.1876 27.3179 74.0479 27.6099C73.9083 27.8976 73.7348 28.1558 73.5274 28.3843C73.3201 28.6086 73.0767 28.7884 72.7974 28.9238C72.5224 29.0592 72.2071 29.127 71.8516 29.127C71.5808 29.127 71.3481 29.0783 71.1534 28.981C70.9587 28.8794 70.7979 28.744 70.671 28.5747C70.544 28.4054 70.4509 28.2108 70.3917 27.9907C70.3324 27.7664 70.3028 27.5316 70.3028 27.2861V20.2783L71.6168 19.8086V26.8164C71.6168 26.9688 71.6189 27.138 71.6231 27.3242C71.6274 27.5104 71.6527 27.6839 71.6993 27.8447C71.7458 28.0055 71.8262 28.141 71.9405 28.251C72.0548 28.361 72.2198 28.416 72.4356 28.416C72.6768 28.416 72.8905 28.3441 73.0767 28.2002C73.2672 28.0521 73.4343 27.8617 73.5782 27.6289C73.7263 27.3919 73.8512 27.1253 73.9527 26.8291C74.0543 26.5329 74.1368 26.2388 74.2003 25.9468C74.2637 25.6506 74.3103 25.3691 74.3399 25.1025C74.3695 24.8317 74.3844 24.6053 74.3844 24.4233V20.2783L75.6983 19.8086V27.6606C75.6983 27.7453 75.7068 27.8299 75.7237 27.9146C75.7406 27.9992 75.7703 28.0754 75.8126 28.1431C75.8549 28.2065 75.9099 28.2594 75.9776 28.3018C76.0453 28.3441 76.13 28.3652 76.2315 28.3652C76.3754 28.3652 76.5108 28.3229 76.6378 28.2383C76.769 28.1536 76.8769 28.0563 76.9615 27.9463L77.1646 28.1304ZM84.8247 21.0337C84.8247 21.2749 84.7591 21.5013 84.6279 21.7129C84.501 21.9245 84.3402 22.1191 84.1455 22.2969C83.9551 22.4704 83.7456 22.6248 83.5171 22.7603C83.2928 22.8914 83.0834 22.9951 82.8887 23.0713C82.6813 23.1517 82.4697 23.2173 82.2539 23.2681C82.0423 23.3146 81.8286 23.3442 81.6128 23.3569L81.4859 23.1348C81.6678 23.0882 81.854 23.0142 82.0445 22.9126C82.2349 22.811 82.4084 22.6883 82.565 22.5444C82.7215 22.3963 82.8485 22.2313 82.9458 22.0493C83.0474 21.8674 83.0982 21.6706 83.0982 21.459C83.0982 21.3109 83.0707 21.1797 83.0156 21.0654C82.9649 20.9512 82.8929 20.856 82.7998 20.7798C82.711 20.6994 82.6052 20.6401 82.4824 20.6021C82.3597 20.5597 82.2264 20.5386 82.0825 20.5386C81.7313 20.5386 81.4182 20.6042 81.1431 20.7354C80.8723 20.8665 80.6332 21.0443 80.4258 21.2686C80.2184 21.4886 80.0428 21.7425 79.8989 22.0303C79.7551 22.318 79.6366 22.6206 79.5435 22.938C79.4546 23.2511 79.389 23.5685 79.3467 23.8901C79.3086 24.2118 79.2896 24.5143 79.2896 24.7979C79.2896 25.0094 79.3001 25.2337 79.3213 25.4707C79.3467 25.7035 79.389 25.9362 79.4483 26.1689C79.5075 26.4017 79.5858 26.6239 79.6831 26.8354C79.7805 27.047 79.9032 27.2332 80.0513 27.394C80.1994 27.5549 80.3729 27.6839 80.5718 27.7812C80.7749 27.8743 81.0098 27.9209 81.2764 27.9209C81.5049 27.9209 81.7186 27.8786 81.9175 27.7939C82.1164 27.7093 82.2984 27.5972 82.4634 27.4575C82.6284 27.3179 82.7744 27.1549 82.9014 26.9688C83.0326 26.7826 83.1426 26.5879 83.2315 26.3848C83.3246 26.1816 83.3944 25.9764 83.4409 25.769C83.4875 25.5617 83.5108 25.3649 83.5108 25.1787L84.8247 24.709V29.9077L83.5108 30.3774V26.4229C83.4304 26.7699 83.2949 27.1042 83.1045 27.4258C82.9183 27.7474 82.6983 28.033 82.4444 28.2827C82.1904 28.5282 81.9133 28.7271 81.6128 28.8794C81.3166 29.0275 81.0182 29.1016 80.7178 29.1016C80.2608 29.1016 79.846 29.0085 79.4737 28.8223C79.1013 28.6318 78.7839 28.38 78.5215 28.0669C78.2591 27.7537 78.056 27.394 77.9121 26.9878C77.7725 26.5815 77.7027 26.1605 77.7027 25.7246C77.7027 25.2549 77.7661 24.783 77.8931 24.3091C78.02 23.8309 78.1999 23.3739 78.4326 22.938C78.6654 22.5021 78.9447 22.0938 79.2705 21.7129C79.5964 21.332 79.9561 21.002 80.3496 20.7227C80.7474 20.4434 81.1727 20.2233 81.6255 20.0625C82.0825 19.9017 82.5565 19.8213 83.0474 19.8213C83.2293 19.8213 83.424 19.8424 83.6314 19.8848C83.843 19.9229 84.0355 19.9884 84.209 20.0815C84.3867 20.1746 84.5327 20.2995 84.647 20.4561C84.7655 20.6084 84.8247 20.8009 84.8247 21.0337Z" fill="#3D3D3D"/>
<path fill-rule="evenodd" clip-rule="evenodd" d="M50 98C76.5097 98 98 76.5097 98 50C98 23.4903 76.5097 2 50 2C23.4903 2 2 23.4903 2 50C2 76.5097 23.4903 98 50 98ZM50 97.04C75.9795 97.04 97.04 75.9795 97.04 50C97.04 24.0205 75.9795 2.96 50 2.96C24.0205 2.96 2.96 24.0205 2.96 50C2.96 75.9795 24.0205 97.04 50 97.04Z" fill="#3D3D3D"/>
<g clip-path="url(#clip1)">
<path d="M62.2195 81.7285C62.0594 82.5722 61.7153 83.3024 61.1871 83.9189C60.6589 84.5355 59.9787 84.8438 59.1463 84.8438H40.7073C39.875 84.8438 39.2027 84.5436 38.6905 83.9433C38.1784 83.3429 37.8262 82.6047 37.6341 81.7285L34.561 63.0371V56.8066C34.561 55.8656 34.8731 55.0868 35.4973 54.4702C36.1216 53.8537 37.0419 53.2452 38.2584 52.6449C39.4748 52.0446 40.2271 51.647 40.5152 51.4523C41.7957 50.5437 42.9482 49.4729 43.9726 48.2397C44.9969 47.0066 45.7492 45.7086 46.2294 44.3457H45.3171C44.9009 44.3457 44.5408 44.1916 44.2367 43.8833C43.9325 43.575 43.7805 43.2099 43.7805 42.7881V36.5576C43.7805 36.1358 43.9325 35.7707 44.2367 35.4624C44.5408 35.1541 44.9009 35 45.3171 35H54.5366C54.9527 35 55.3129 35.1541 55.617 35.4624C55.9211 35.7707 56.0732 36.1358 56.0732 36.5576V42.7881C56.0732 43.2099 55.9211 43.575 55.617 43.8833C55.3129 44.1916 54.9527 44.3457 54.5366 44.3457H53.6242C54.5846 46.9742 56.3613 49.2457 58.9543 51.1603C59.3064 51.4523 60.1067 51.9066 61.3552 52.5232C62.6037 53.1398 63.572 53.7725 64.2603 54.4215C64.9485 55.0705 65.2927 55.8656 65.2927 56.8066V63.0371L62.2195 81.7285Z" fill="#3D3D3D"/>
<rect x="34" y="55" width="32" height="10" rx="1" fill="#DCD2D2"/>
<path d="M42.8711 62.1523C42.8008 62.2487 42.7174 62.3529 42.6211 62.4648C42.5247 62.5742 42.4193 62.6771 42.3047 62.7734C42.1901 62.8672 42.0677 62.9453 41.9375 63.0078C41.8099 63.0729 41.6784 63.1055 41.543 63.1055C41.4518 63.1055 41.3672 63.0911 41.2891 63.0625C41.2109 63.0365 41.138 63 41.0703 62.9531C41.0052 62.9062 40.9427 62.8529 40.8828 62.793C40.8255 62.7305 40.7708 62.6667 40.7188 62.6016C40.5469 62.388 40.3789 62.1732 40.2148 61.957C40.0534 61.7409 39.8958 61.5208 39.7422 61.2969L39.7852 61.1367C39.9544 61.1081 40.125 61.0651 40.2969 61.0078C40.4714 60.9479 40.638 60.875 40.7969 60.7891C40.9557 60.7005 41.1042 60.599 41.2422 60.4844C41.3802 60.3672 41.5 60.2383 41.6016 60.0977C41.7031 59.9544 41.7826 59.7995 41.8398 59.6328C41.8997 59.4635 41.9297 59.2826 41.9297 59.0898C41.9297 58.9049 41.8997 58.7344 41.8398 58.5781C41.7799 58.4219 41.6953 58.2865 41.5859 58.1719C41.4792 58.0573 41.3503 57.9688 41.1992 57.9062C41.0482 57.8411 40.8802 57.8086 40.6953 57.8086C40.4609 57.8086 40.2409 57.8346 40.0352 57.8867C39.832 57.9388 39.638 58.0091 39.4531 58.0977C39.2708 58.1836 39.0951 58.2826 38.9258 58.3945C38.7565 58.5065 38.5898 58.6224 38.4258 58.7422L38.3047 58.6094C38.4609 58.4583 38.6289 58.3073 38.8086 58.1562C38.9909 58.0026 39.1953 57.8646 39.4219 57.7422C39.6484 57.6198 39.901 57.5208 40.1797 57.4453C40.4609 57.3672 40.7773 57.3281 41.1289 57.3281C41.3659 57.3281 41.5833 57.3698 41.7812 57.4531C41.9818 57.5365 42.1536 57.6523 42.2969 57.8008C42.4401 57.9492 42.5521 58.125 42.6328 58.3281C42.7135 58.5312 42.7539 58.7526 42.7539 58.9922C42.7539 59.3646 42.6602 59.6888 42.4727 59.9648C42.2852 60.2383 42.0312 60.4609 41.7109 60.6328C41.6719 60.6536 41.6224 60.681 41.5625 60.7148C41.5052 60.7487 41.4414 60.7852 41.3711 60.8242C41.3034 60.8633 41.2331 60.9023 41.1602 60.9414C41.0872 60.9805 41.0169 61.0169 40.9492 61.0508C40.8815 61.082 40.819 61.1094 40.7617 61.1328C40.7044 61.1562 40.6562 61.1706 40.6172 61.1758C40.6719 61.2487 40.7383 61.3359 40.8164 61.4375C40.8971 61.5391 40.9805 61.6432 41.0664 61.75C41.1523 61.8568 41.237 61.9583 41.3203 62.0547C41.4062 62.151 41.4831 62.2292 41.5508 62.2891C41.6159 62.3438 41.681 62.3919 41.7461 62.4336C41.8138 62.4753 41.8932 62.4961 41.9844 62.4961C42.0547 62.4961 42.125 62.4818 42.1953 62.4531C42.2656 62.4219 42.3333 62.3828 42.3984 62.3359C42.4635 62.2891 42.5247 62.2383 42.582 62.1836C42.6393 62.1289 42.6901 62.0781 42.7344 62.0312L42.8711 62.1523ZM39.5664 62.8242L38.7617 63.1211V58.7422L39.5664 58.457V62.8242ZM47.5039 62.832L46.6953 63.1211V60.9023H44.6641V62.832L43.8555 63.1211V60.9023H43.2305L43.5195 60.3359H43.8555V57.5273L44.6641 57.2383V60.3359H46.6953V57.5273L47.5039 57.2383V62.832ZM53.1211 62.4648C53.082 62.5404 53.0326 62.6133 52.9727 62.6836C52.9154 62.7539 52.849 62.8164 52.7734 62.8711C52.7005 62.9232 52.6224 62.9661 52.5391 63C52.4557 63.0312 52.3698 63.0469 52.2812 63.0469C52.138 63.0469 52.0117 63.0195 51.9023 62.9648C51.793 62.9102 51.7018 62.8372 51.6289 62.7461C51.556 62.6523 51.5013 62.5456 51.4648 62.4258C51.4284 62.306 51.4102 62.1797 51.4102 62.0469V61.5859C51.3581 61.7786 51.2891 61.9648 51.2031 62.1445C51.1172 62.3216 51.0104 62.4805 50.8828 62.6211C50.7552 62.7591 50.6055 62.8698 50.4336 62.9531C50.2643 63.0365 50.0703 63.0781 49.8516 63.0781C49.6849 63.0781 49.5417 63.0482 49.4219 62.9883C49.3021 62.9258 49.2031 62.8424 49.125 62.7383C49.0469 62.6341 48.9896 62.5143 48.9531 62.3789C48.9167 62.2409 48.8984 62.0964 48.8984 61.9453V57.6328L49.707 57.3438V61.6562C49.707 61.75 49.7083 61.8542 49.7109 61.9688C49.7135 62.0833 49.7292 62.1901 49.7578 62.2891C49.7865 62.388 49.8359 62.4714 49.9062 62.5391C49.9766 62.6068 50.0781 62.6406 50.2109 62.6406C50.3594 62.6406 50.4909 62.5964 50.6055 62.5078C50.7227 62.4167 50.8255 62.2995 50.9141 62.1562C51.0052 62.0104 51.082 61.8464 51.1445 61.6641C51.207 61.4818 51.2578 61.3008 51.2969 61.1211C51.3359 60.9388 51.3646 60.7656 51.3828 60.6016C51.401 60.4349 51.4102 60.2956 51.4102 60.1836V57.6328L52.2188 57.3438V62.1758C52.2188 62.2279 52.224 62.2799 52.2344 62.332C52.2448 62.3841 52.263 62.431 52.2891 62.4727C52.3151 62.5117 52.349 62.5443 52.3906 62.5703C52.4323 62.5964 52.4844 62.6094 52.5469 62.6094C52.6354 62.6094 52.7188 62.5833 52.7969 62.5312C52.8776 62.4792 52.944 62.4193 52.9961 62.3516L53.1211 62.4648ZM60.2109 62.4648C60.1719 62.5404 60.1224 62.6133 60.0625 62.6836C60.0052 62.7539 59.9388 62.8164 59.8633 62.8711C59.7904 62.9232 59.7122 62.9661 59.6289 63C59.5456 63.0312 59.4596 63.0469 59.3711 63.0469C59.2279 63.0469 59.1016 63.0195 58.9922 62.9648C58.8828 62.9102 58.7917 62.8372 58.7188 62.7461C58.6458 62.6523 58.5911 62.5456 58.5547 62.4258C58.5182 62.306 58.5 62.1797 58.5 62.0469V58.1602C58.5 58.1211 58.4948 58.082 58.4844 58.043C58.4766 58.0013 58.4622 57.9648 58.4414 57.9336C58.4206 57.8997 58.3932 57.8737 58.3594 57.8555C58.3281 57.8346 58.2891 57.8242 58.2422 57.8242C58.1641 57.8242 58.0794 57.8568 57.9883 57.9219C57.8997 57.9844 57.8099 58.0755 57.7188 58.1953C57.6302 58.3125 57.5443 58.4544 57.4609 58.6211C57.3776 58.7878 57.3034 58.9727 57.2383 59.1758C57.1758 59.3789 57.125 59.599 57.0859 59.8359C57.0469 60.0703 57.0273 60.3164 57.0273 60.5742V62.832L56.2188 63.1211V58.1602C56.2188 58.1211 56.2135 58.082 56.2031 58.043C56.1953 58.0013 56.181 57.9648 56.1602 57.9336C56.1393 57.8997 56.1133 57.8737 56.082 57.8555C56.0508 57.8346 56.0117 57.8242 55.9648 57.8242C55.8867 57.8242 55.8021 57.8724 55.7109 57.9688C55.6224 58.0625 55.5326 58.1888 55.4414 58.3477C55.3529 58.5039 55.2656 58.6849 55.1797 58.8906C55.0964 59.0964 55.0221 59.3099 54.957 59.5312C54.8945 59.75 54.8438 59.9688 54.8047 60.1875C54.7656 60.4062 54.7461 60.6081 54.7461 60.793V62.832L53.9375 63.1211V57.5273L54.7461 57.2383V59.4414C54.8477 59.0039 54.9622 58.6445 55.0898 58.3633C55.2201 58.082 55.3542 57.8594 55.4922 57.6953C55.6328 57.5312 55.776 57.418 55.9219 57.3555C56.0677 57.2904 56.2096 57.2578 56.3477 57.2578C56.5039 57.2578 56.6276 57.2773 56.7188 57.3164C56.8099 57.3529 56.8789 57.4049 56.9258 57.4727C56.9727 57.5378 57.0013 57.6159 57.0117 57.707C57.0247 57.7956 57.0299 57.8932 57.0273 58V59.1602C57.1055 58.8372 57.207 58.5573 57.332 58.3203C57.457 58.0807 57.5924 57.8828 57.7383 57.7266C57.8841 57.5677 58.0339 57.4505 58.1875 57.375C58.3438 57.2969 58.4909 57.2578 58.6289 57.2578C58.8477 57.2578 59.0156 57.3047 59.1328 57.3984C59.25 57.4896 59.3086 57.6445 59.3086 57.8633V62.1758C59.3086 62.2279 59.3138 62.2799 59.3242 62.332C59.3346 62.3841 59.3516 62.431 59.375 62.4727C59.401 62.5117 59.4349 62.5443 59.4766 62.5703C59.5182 62.5964 59.569 62.6094 59.6289 62.6094C59.7174 62.6094 59.8021 62.5833 59.8828 62.5312C59.9635 62.4792 60.0299 62.4193 60.082 62.3516L60.2109 62.4648Z" fill="#3D3D3D"/>
</g>
</g>
<defs>
<clipPath id="clip0">
<rect width="100" height="100" fill="white"/>
</clipPath>
<clipPath id="clip1">
<rect x="32" y="35" width="35" height="55" fill="white"/>
</clipPath>
</defs>
</svg>
